<svg xmlns="http://www.w3.org/2000/svg" width="102" height="32" viewBox="0 0 102 32"><rect width="100%" height="100%" fill="#101010"/><g fill="#35D06E"><rect x="0" y="6" width="1" height="1"/><rect x="1" y="6" width="1" height="1"/><rect x="2" y="6" width="1" height="1"/><rect x="3" y="6" width="1" height="1"/><rect x="4" y="6" width="1" height="1"/><rect x="5" y="6" width="1" height="1"/><rect x="6" y="6" width="1" height="1"/><rect x="7" y="6" width="1" height="1"/><rect x="8" y="6" width="1" height="1"/><rect x="9" y="6" width="1" height="1"/><rect x="10" y="6" width="1" height="1"/><rect x="11" y="6" width="1" height="1"/><rect x="12" y="6" width="1" height="1"/><rect x="13" y="6" width="1" height="1"/><rect x="14" y="6" width="1" height="1"/><rect x="15" y="6" width="1" height="1"/><rect x="16" y="6" width="1" height="1"/><rect x="17" y="6" width="1" height="1"/><rect x="18" y="6" width="1" height="1"/><rect x="19" y="6" width="1" height="1"/><rect x="20" y="6" width="1" height="1"/><rect x="21" y="6" width="1" height="1"/><rect x="22" y="6" width="1" height="1"/><rect x="23" y="6" width="1" height="1"/><rect x="24" y="6" width="1" height="1"/><rect x="25" y="6" width="1" height="1"/><rect x="26" y="6" width="1" height="1"/><rect x="0" y="7" width="1" height="1"/><rect x="1" y="7" width="1" height="1"/><rect x="2" y="7" width="1" height="1"/><rect x="3" y="7" width="1" height="1"/><rect x="4" y="7" width="1" height="1"/><rect x="5" y="7" width="1" height="1"/><rect x="6" y="7" width="1" height="1"/><rect x="7" y="7" width="1" height="1"/><rect x="8" y="7" width="1" height="1"/><rect x="9" y="7" width="1" height="1"/><rect x="10" y="7" width="1" height="1"/><rect x="11" y="7" width="1" height="1"/><rect x="12" y="7" width="1" height="1"/><rect x="13" y="7" width="1" height="1"/><rect x="14" y="7" width="1" height="1"/><rect x="15" y="7" width="1" height="1"/><rect x="16" y="7" width="1" height="1"/><rect x="17" y="7" width="1" height="1"/><rect x="18" y="7" width="1" height="1"/><rect x="19" y="7" width="1" height="1"/><rect x="20" y="7" width="1" height="1"/><rect x="21" y="7" width="1" height="1"/><rect x="22" y="7" width="1" height="1"/><rect x="23" y="7" width="1" height="1"/><rect x="24" y="7" width="1" height="1"/><rect x="25" y="7" width="1" height="1"/><rect x="26" y="7" width="1" height="1"/><rect x="53" y="7" width="1" height="1"/><rect x="54" y="7" width="1" height="1"/><rect x="55" y="7" width="1" height="1"/><rect x="0" y="8" width="1" height="1"/><rect x="1" y="8" width="1" height="1"/><rect x="2" y="8" width="1" height="1"/><rect x="3" y="8" width="1" height="1"/><rect x="4" y="8" width="1" height="1"/><rect x="5" y="8" width="1" height="1"/><rect x="6" y="8" width="1" height="1"/><rect x="7" y="8" width="1" height="1"/><rect x="8" y="8" width="1" height="1"/><rect x="9" y="8" width="1" height="1"/><rect x="10" y="8" width="1" height="1"/><rect x="11" y="8" width="1" height="1"/><rect x="12" y="8" width="1" height="1"/><rect x="13" y="8" width="1" height="1"/><rect x="14" y="8" width="1" height="1"/><rect x="15" y="8" width="1" height="1"/><rect x="16" y="8" width="1" height="1"/><rect x="17" y="8" width="1" height="1"/><rect x="18" y="8" width="1" height="1"/><rect x="19" y="8" width="1" height="1"/><rect x="20" y="8" width="1" height="1"/><rect x="21" y="8" width="1" height="1"/><rect x="22" y="8" width="1" height="1"/><rect x="23" y="8" width="1" height="1"/><rect x="24" y="8" width="1" height="1"/><rect x="25" y="8" width="1" height="1"/><rect x="26" y="8" width="1" height="1"/><rect x="32" y="8" width="1" height="1"/><rect x="33" y="8" width="1" height="1"/><rect x="34" y="8" width="1" height="1"/><rect x="35" y="8" width="1" height="1"/><rect x="36" y="8" width="1" height="1"/><rect x="37" y="8" width="1" height="1"/><rect x="38" y="8" width="1" height="1"/><rect x="39" y="8" width="1" height="1"/><rect x="40" y="8" width="1" height="1"/><rect x="41" y="8" width="1" height="1"/><rect x="42" y="8" width="1" height="1"/><rect x="49" y="8" width="1" height="1"/><rect x="50" y="8" width="1" height="1"/><rect x="51" y="8" width="1" height="1"/><rect x="52" y="8" width="1" height="1"/><rect x="53" y="8" width="1" height="1"/><rect x="54" y="8" width="1" height="1"/><rect x="55" y="8" width="1" height="1"/><rect x="56" y="8" width="1" height="1"/><rect x="57" y="8" width="1" height="1"/><rect x="58" y="8" width="1" height="1"/><rect x="63" y="8" width="1" height="1"/><rect x="64" y="8" width="1" height="1"/><rect x="65" y="8" width="1" height="1"/><rect x="66" y="8" width="1" height="1"/><rect x="74" y="8" width="1" height="1"/><rect x="75" y="8" width="1" height="1"/><rect x="76" y="8" width="1" height="1"/><rect x="77" y="8" width="1" height="1"/><rect x="78" y="8" width="1" height="1"/><rect x="79" y="8" width="1" height="1"/><rect x="80" y="8" width="1" height="1"/><rect x="81" y="8" width="1" height="1"/><rect x="82" y="8" width="1" height="1"/><rect x="83" y="8" width="1" height="1"/><rect x="86" y="8" width="1" height="1"/><rect x="87" y="8" width="1" height="1"/><rect x="88" y="8" width="1" height="1"/><rect x="89" y="8" width="1" height="1"/><rect x="96" y="8" width="1" height="1"/><rect x="97" y="8" width="1" height="1"/><rect x="98" y="8" width="1" height="1"/><rect x="99" y="8" width="1" height="1"/><rect x="0" y="9" width="1" height="1"/><rect x="1" y="9" width="1" height="1"/><rect x="2" y="9" width="1" height="1"/><rect x="9" y="9" width="1" height="1"/><rect x="10" y="9" width="1" height="1"/><rect x="11" y="9" width="1" height="1"/><rect x="12" y="9" width="1" height="1"/><rect x="13" y="9" width="1" height="1"/><rect x="14" y="9" width="1" height="1"/><rect x="15" y="9" width="1" height="1"/><rect x="16" y="9" width="1" height="1"/><rect x="17" y="9" width="1" height="1"/><rect x="23" y="9" width="1" height="1"/><rect x="24" y="9" width="1" height="1"/><rect x="25" y="9" width="1" height="1"/><rect x="26" y="9" width="1" height="1"/><rect x="32" y="9" width="1" height="1"/><rect x="33" y="9" width="1" height="1"/><rect x="34" y="9" width="1" height="1"/><rect x="35" y="9" width="1" height="1"/><rect x="36" y="9" width="1" height="1"/><rect x="37" y="9" width="1" height="1"/><rect x="38" y="9" width="1" height="1"/><rect x="39" y="9" width="1" height="1"/><rect x="40" y="9" width="1" height="1"/><rect x="41" y="9" width="1" height="1"/><rect x="42" y="9" width="1" height="1"/><rect x="43" y="9" width="1" height="1"/><rect x="48" y="9" width="1" height="1"/><rect x="49" y="9" width="1" height="1"/><rect x="50" y="9" width="1" height="1"/><rect x="51" y="9" width="1" height="1"/><rect x="52" y="9" width="1" height="1"/><rect x="53" y="9" width="1" height="1"/><rect x="54" y="9" width="1" height="1"/><rect x="55" y="9" width="1" height="1"/><rect x="56" y="9" width="1" height="1"/><rect x="57" y="9" width="1" height="1"/><rect x="58" y="9" width="1" height="1"/><rect x="59" y="9" width="1" height="1"/><rect x="63" y="9" width="1" height="1"/><rect x="64" y="9" width="1" height="1"/><rect x="65" y="9" width="1" height="1"/><rect x="66" y="9" width="1" height="1"/><rect x="74" y="9" width="1" height="1"/><rect x="75" y="9" width="1" height="1"/><rect x="76" y="9" width="1" height="1"/><rect x="77" y="9" width="1" height="1"/><rect x="78" y="9" width="1" height="1"/><rect x="79" y="9" width="1" height="1"/><rect x="80" y="9" width="1" height="1"/><rect x="81" y="9" width="1" height="1"/><rect x="82" y="9" width="1" height="1"/><rect x="83" y="9" width="1" height="1"/><rect x="84" y="9" width="1" height="1"/><rect x="87" y="9" width="1" height="1"/><rect x="88" y="9" width="1" height="1"/><rect x="89" y="9" width="1" height="1"/><rect x="90" y="9" width="1" height="1"/><rect x="96" y="9" width="1" height="1"/><rect x="97" y="9" width="1" height="1"/><rect x="98" y="9" width="1" height="1"/><rect x="0" y="10" width="1" height="1"/><rect x="1" y="10" width="1" height="1"/><rect x="2" y="10" width="1" height="1"/><rect x="10" y="10" width="1" height="1"/><rect x="11" y="10" width="1" height="1"/><rect x="12" y="10" width="1" height="1"/><rect x="13" y="10" width="1" height="1"/><rect x="14" y="10" width="1" height="1"/><rect x="15" y="10" width="1" height="1"/><rect x="16" y="10" width="1" height="1"/><rect x="23" y="10" width="1" height="1"/><rect x="24" y="10" width="1" height="1"/><rect x="25" y="10" width="1" height="1"/><rect x="26" y="10" width="1" height="1"/><rect x="32" y="10" width="1" height="1"/><rect x="33" y="10" width="1" height="1"/><rect x="34" y="10" width="1" height="1"/><rect x="35" y="10" width="1" height="1"/><rect x="40" y="10" width="1" height="1"/><rect x="41" y="10" width="1" height="1"/><rect x="42" y="10" width="1" height="1"/><rect x="43" y="10" width="1" height="1"/><rect x="44" y="10" width="1" height="1"/><rect x="47" y="10" width="1" height="1"/><rect x="48" y="10" width="1" height="1"/><rect x="49" y="10" width="1" height="1"/><rect x="50" y="10" width="1" height="1"/><rect x="51" y="10" width="1" height="1"/><rect x="56" y="10" width="1" height="1"/><rect x="57" y="10" width="1" height="1"/><rect x="58" y="10" width="1" height="1"/><rect x="59" y="10" width="1" height="1"/><rect x="63" y="10" width="1" height="1"/><rect x="64" y="10" width="1" height="1"/><rect x="65" y="10" width="1" height="1"/><rect x="66" y="10" width="1" height="1"/><rect x="74" y="10" width="1" height="1"/><rect x="75" y="10" width="1" height="1"/><rect x="76" y="10" width="1" height="1"/><rect x="77" y="10" width="1" height="1"/><rect x="81" y="10" width="1" height="1"/><rect x="82" y="10" width="1" height="1"/><rect x="83" y="10" width="1" height="1"/><rect x="84" y="10" width="1" height="1"/><rect x="87" y="10" width="1" height="1"/><rect x="88" y="10" width="1" height="1"/><rect x="89" y="10" width="1" height="1"/><rect x="90" y="10" width="1" height="1"/><rect x="95" y="10" width="1" height="1"/><rect x="96" y="10" width="1" height="1"/><rect x="97" y="10" width="1" height="1"/><rect x="98" y="10" width="1" height="1"/><rect x="0" y="11" width="1" height="1"/><rect x="1" y="11" width="1" height="1"/><rect x="2" y="11" width="1" height="1"/><rect x="11" y="11" width="1" height="1"/><rect x="12" y="11" width="1" height="1"/><rect x="13" y="11" width="1" height="1"/><rect x="14" y="11" width="1" height="1"/><rect x="15" y="11" width="1" height="1"/><rect x="23" y="11" width="1" height="1"/><rect x="24" y="11" width="1" height="1"/><rect x="25" y="11" width="1" height="1"/><rect x="26" y="11" width="1" height="1"/><rect x="32" y="11" width="1" height="1"/><rect x="33" y="11" width="1" height="1"/><rect x="34" y="11" width="1" height="1"/><rect x="35" y="11" width="1" height="1"/><rect x="41" y="11" width="1" height="1"/><rect x="42" y="11" width="1" height="1"/><rect x="43" y="11" width="1" height="1"/><rect x="44" y="11" width="1" height="1"/><rect x="47" y="11" width="1" height="1"/><rect x="48" y="11" width="1" height="1"/><rect x="49" y="11" width="1" height="1"/><rect x="50" y="11" width="1" height="1"/><rect x="57" y="11" width="1" height="1"/><rect x="58" y="11" width="1" height="1"/><rect x="59" y="11" width="1" height="1"/><rect x="60" y="11" width="1" height="1"/><rect x="63" y="11" width="1" height="1"/><rect x="64" y="11" width="1" height="1"/><rect x="65" y="11" width="1" height="1"/><rect x="66" y="11" width="1" height="1"/><rect x="74" y="11" width="1" height="1"/><rect x="75" y="11" width="1" height="1"/><rect x="76" y="11" width="1" height="1"/><rect x="77" y="11" width="1" height="1"/><rect x="82" y="11" width="1" height="1"/><rect x="83" y="11" width="1" height="1"/><rect x="84" y="11" width="1" height="1"/><rect x="88" y="11" width="1" height="1"/><rect x="89" y="11" width="1" height="1"/><rect x="90" y="11" width="1" height="1"/><rect x="91" y="11" width="1" height="1"/><rect x="94" y="11" width="1" height="1"/><rect x="95" y="11" width="1" height="1"/><rect x="96" y="11" width="1" height="1"/><rect x="97" y="11" width="1" height="1"/><rect x="0" y="12" width="1" height="1"/><rect x="1" y="12" width="1" height="1"/><rect x="2" y="12" width="1" height="1"/><rect x="11" y="12" width="1" height="1"/><rect x="12" y="12" width="1" height="1"/><rect x="13" y="12" width="1" height="1"/><rect x="14" y="12" width="1" height="1"/><rect x="23" y="12" width="1" height="1"/><rect x="24" y="12" width="1" height="1"/><rect x="25" y="12" width="1" height="1"/><rect x="26" y="12" width="1" height="1"/><rect x="32" y="12" width="1" height="1"/><rect x="33" y="12" width="1" height="1"/><rect x="34" y="12" width="1" height="1"/><rect x="35" y="12" width="1" height="1"/><rect x="42" y="12" width="1" height="1"/><rect x="43" y="12" width="1" height="1"/><rect x="44" y="12" width="1" height="1"/><rect x="47" y="12" width="1" height="1"/><rect x="48" y="12" width="1" height="1"/><rect x="49" y="12" width="1" height="1"/><rect x="50" y="12" width="1" height="1"/><rect x="57" y="12" width="1" height="1"/><rect x="58" y="12" width="1" height="1"/><rect x="59" y="12" width="1" height="1"/><rect x="60" y="12" width="1" height="1"/><rect x="63" y="12" width="1" height="1"/><rect x="64" y="12" width="1" height="1"/><rect x="65" y="12" width="1" height="1"/><rect x="66" y="12" width="1" height="1"/><rect x="74" y="12" width="1" height="1"/><rect x="75" y="12" width="1" height="1"/><rect x="76" y="12" width="1" height="1"/><rect x="77" y="12" width="1" height="1"/><rect x="82" y="12" width="1" height="1"/><rect x="83" y="12" width="1" height="1"/><rect x="84" y="12" width="1" height="1"/><rect x="89" y="12" width="1" height="1"/><rect x="90" y="12" width="1" height="1"/><rect x="91" y="12" width="1" height="1"/><rect x="94" y="12" width="1" height="1"/><rect x="95" y="12" width="1" height="1"/><rect x="96" y="12" width="1" height="1"/><rect x="0" y="13" width="1" height="1"/><rect x="1" y="13" width="1" height="1"/><rect x="2" y="13" width="1" height="1"/><rect x="12" y="13" width="1" height="1"/><rect x="13" y="13" width="1" height="1"/><rect x="14" y="13" width="1" height="1"/><rect x="23" y="13" width="1" height="1"/><rect x="24" y="13" width="1" height="1"/><rect x="25" y="13" width="1" height="1"/><rect x="26" y="13" width="1" height="1"/><rect x="32" y="13" width="1" height="1"/><rect x="33" y="13" width="1" height="1"/><rect x="34" y="13" width="1" height="1"/><rect x="35" y="13" width="1" height="1"/><rect x="42" y="13" width="1" height="1"/><rect x="43" y="13" width="1" height="1"/><rect x="44" y="13" width="1" height="1"/><rect x="47" y="13" width="1" height="1"/><rect x="48" y="13" width="1" height="1"/><rect x="49" y="13" width="1" height="1"/><rect x="50" y="13" width="1" height="1"/><rect x="57" y="13" width="1" height="1"/><rect x="58" y="13" width="1" height="1"/><rect x="59" y="13" width="1" height="1"/><rect x="60" y="13" width="1" height="1"/><rect x="63" y="13" width="1" height="1"/><rect x="64" y="13" width="1" height="1"/><rect x="65" y="13" width="1" height="1"/><rect x="66" y="13" width="1" height="1"/><rect x="74" y="13" width="1" height="1"/><rect x="75" y="13" width="1" height="1"/><rect x="76" y="13" width="1" height="1"/><rect x="77" y="13" width="1" height="1"/><rect x="81" y="13" width="1" height="1"/><rect x="82" y="13" width="1" height="1"/><rect x="83" y="13" width="1" height="1"/><rect x="84" y="13" width="1" height="1"/><rect x="89" y="13" width="1" height="1"/><rect x="90" y="13" width="1" height="1"/><rect x="91" y="13" width="1" height="1"/><rect x="92" y="13" width="1" height="1"/><rect x="93" y="13" width="1" height="1"/><rect x="94" y="13" width="1" height="1"/><rect x="95" y="13" width="1" height="1"/><rect x="96" y="13" width="1" height="1"/><rect x="0" y="14" width="1" height="1"/><rect x="1" y="14" width="1" height="1"/><rect x="2" y="14" width="1" height="1"/><rect x="12" y="14" width="1" height="1"/><rect x="13" y="14" width="1" height="1"/><rect x="14" y="14" width="1" height="1"/><rect x="23" y="14" width="1" height="1"/><rect x="24" y="14" width="1" height="1"/><rect x="25" y="14" width="1" height="1"/><rect x="26" y="14" width="1" height="1"/><rect x="32" y="14" width="1" height="1"/><rect x="33" y="14" width="1" height="1"/><rect x="34" y="14" width="1" height="1"/><rect x="35" y="14" width="1" height="1"/><rect x="42" y="14" width="1" height="1"/><rect x="43" y="14" width="1" height="1"/><rect x="44" y="14" width="1" height="1"/><rect x="47" y="14" width="1" height="1"/><rect x="48" y="14" width="1" height="1"/><rect x="49" y="14" width="1" height="1"/><rect x="50" y="14" width="1" height="1"/><rect x="57" y="14" width="1" height="1"/><rect x="58" y="14" width="1" height="1"/><rect x="59" y="14" width="1" height="1"/><rect x="60" y="14" width="1" height="1"/><rect x="63" y="14" width="1" height="1"/><rect x="64" y="14" width="1" height="1"/><rect x="65" y="14" width="1" height="1"/><rect x="66" y="14" width="1" height="1"/><rect x="74" y="14" width="1" height="1"/><rect x="75" y="14" width="1" height="1"/><rect x="76" y="14" width="1" height="1"/><rect x="77" y="14" width="1" height="1"/><rect x="79" y="14" width="1" height="1"/><rect x="80" y="14" width="1" height="1"/><rect x="81" y="14" width="1" height="1"/><rect x="82" y="14" width="1" height="1"/><rect x="83" y="14" width="1" height="1"/><rect x="90" y="14" width="1" height="1"/><rect x="91" y="14" width="1" height="1"/><rect x="92" y="14" width="1" height="1"/><rect x="93" y="14" width="1" height="1"/><rect x="94" y="14" width="1" height="1"/><rect x="95" y="14" width="1" height="1"/><rect x="0" y="15" width="1" height="1"/><rect x="1" y="15" width="1" height="1"/><rect x="2" y="15" width="1" height="1"/><rect x="12" y="15" width="1" height="1"/><rect x="13" y="15" width="1" height="1"/><rect x="14" y="15" width="1" height="1"/><rect x="23" y="15" width="1" height="1"/><rect x="24" y="15" width="1" height="1"/><rect x="25" y="15" width="1" height="1"/><rect x="26" y="15" width="1" height="1"/><rect x="32" y="15" width="1" height="1"/><rect x="33" y="15" width="1" height="1"/><rect x="34" y="15" width="1" height="1"/><rect x="35" y="15" width="1" height="1"/><rect x="42" y="15" width="1" height="1"/><rect x="43" y="15" width="1" height="1"/><rect x="44" y="15" width="1" height="1"/><rect x="47" y="15" width="1" height="1"/><rect x="48" y="15" width="1" height="1"/><rect x="49" y="15" width="1" height="1"/><rect x="50" y="15" width="1" height="1"/><rect x="57" y="15" width="1" height="1"/><rect x="58" y="15" width="1" height="1"/><rect x="59" y="15" width="1" height="1"/><rect x="60" y="15" width="1" height="1"/><rect x="63" y="15" width="1" height="1"/><rect x="64" y="15" width="1" height="1"/><rect x="65" y="15" width="1" height="1"/><rect x="66" y="15" width="1" height="1"/><rect x="74" y="15" width="1" height="1"/><rect x="75" y="15" width="1" height="1"/><rect x="76" y="15" width="1" height="1"/><rect x="77" y="15" width="1" height="1"/><rect x="79" y="15" width="1" height="1"/><rect x="80" y="15" width="1" height="1"/><rect x="81" y="15" width="1" height="1"/><rect x="82" y="15" width="1" height="1"/><rect x="83" y="15" width="1" height="1"/><rect x="84" y="15" width="1" height="1"/><rect x="90" y="15" width="1" height="1"/><rect x="91" y="15" width="1" height="1"/><rect x="92" y="15" width="1" height="1"/><rect x="93" y="15" width="1" height="1"/><rect x="94" y="15" width="1" height="1"/><rect x="95" y="15" width="1" height="1"/><rect x="0" y="16" width="1" height="1"/><rect x="1" y="16" width="1" height="1"/><rect x="2" y="16" width="1" height="1"/><rect x="12" y="16" width="1" height="1"/><rect x="13" y="16" width="1" height="1"/><rect x="14" y="16" width="1" height="1"/><rect x="23" y="16" width="1" height="1"/><rect x="24" y="16" width="1" height="1"/><rect x="25" y="16" width="1" height="1"/><rect x="26" y="16" width="1" height="1"/><rect x="32" y="16" width="1" height="1"/><rect x="33" y="16" width="1" height="1"/><rect x="34" y="16" width="1" height="1"/><rect x="35" y="16" width="1" height="1"/><rect x="42" y="16" width="1" height="1"/><rect x="43" y="16" width="1" height="1"/><rect x="44" y="16" width="1" height="1"/><rect x="47" y="16" width="1" height="1"/><rect x="48" y="16" width="1" height="1"/><rect x="49" y="16" width="1" height="1"/><rect x="50" y="16" width="1" height="1"/><rect x="57" y="16" width="1" height="1"/><rect x="58" y="16" width="1" height="1"/><rect x="59" y="16" width="1" height="1"/><rect x="60" y="16" width="1" height="1"/><rect x="63" y="16" width="1" height="1"/><rect x="64" y="16" width="1" height="1"/><rect x="65" y="16" width="1" height="1"/><rect x="66" y="16" width="1" height="1"/><rect x="74" y="16" width="1" height="1"/><rect x="75" y="16" width="1" height="1"/><rect x="76" y="16" width="1" height="1"/><rect x="77" y="16" width="1" height="1"/><rect x="82" y="16" width="1" height="1"/><rect x="83" y="16" width="1" height="1"/><rect x="84" y="16" width="1" height="1"/><rect x="85" y="16" width="1" height="1"/><rect x="91" y="16" width="1" height="1"/><rect x="92" y="16" width="1" height="1"/><rect x="93" y="16" width="1" height="1"/><rect x="94" y="16" width="1" height="1"/><rect x="0" y="17" width="1" height="1"/><rect x="1" y="17" width="1" height="1"/><rect x="2" y="17" width="1" height="1"/><rect x="11" y="17" width="1" height="1"/><rect x="12" y="17" width="1" height="1"/><rect x="13" y="17" width="1" height="1"/><rect x="14" y="17" width="1" height="1"/><rect x="23" y="17" width="1" height="1"/><rect x="24" y="17" width="1" height="1"/><rect x="25" y="17" width="1" height="1"/><rect x="26" y="17" width="1" height="1"/><rect x="32" y="17" width="1" height="1"/><rect x="33" y="17" width="1" height="1"/><rect x="34" y="17" width="1" height="1"/><rect x="35" y="17" width="1" height="1"/><rect x="42" y="17" width="1" height="1"/><rect x="43" y="17" width="1" height="1"/><rect x="44" y="17" width="1" height="1"/><rect x="47" y="17" width="1" height="1"/><rect x="48" y="17" width="1" height="1"/><rect x="49" y="17" width="1" height="1"/><rect x="50" y="17" width="1" height="1"/><rect x="57" y="17" width="1" height="1"/><rect x="58" y="17" width="1" height="1"/><rect x="59" y="17" width="1" height="1"/><rect x="60" y="17" width="1" height="1"/><rect x="63" y="17" width="1" height="1"/><rect x="64" y="17" width="1" height="1"/><rect x="65" y="17" width="1" height="1"/><rect x="66" y="17" width="1" height="1"/><rect x="74" y="17" width="1" height="1"/><rect x="75" y="17" width="1" height="1"/><rect x="76" y="17" width="1" height="1"/><rect x="77" y="17" width="1" height="1"/><rect x="83" y="17" width="1" height="1"/><rect x="84" y="17" width="1" height="1"/><rect x="85" y="17" width="1" height="1"/><rect x="91" y="17" width="1" height="1"/><rect x="92" y="17" width="1" height="1"/><rect x="93" y="17" width="1" height="1"/><rect x="94" y="17" width="1" height="1"/><rect x="0" y="18" width="1" height="1"/><rect x="1" y="18" width="1" height="1"/><rect x="2" y="18" width="1" height="1"/><rect x="11" y="18" width="1" height="1"/><rect x="12" y="18" width="1" height="1"/><rect x="13" y="18" width="1" height="1"/><rect x="14" y="18" width="1" height="1"/><rect x="15" y="18" width="1" height="1"/><rect x="23" y="18" width="1" height="1"/><rect x="24" y="18" width="1" height="1"/><rect x="25" y="18" width="1" height="1"/><rect x="26" y="18" width="1" height="1"/><rect x="32" y="18" width="1" height="1"/><rect x="33" y="18" width="1" height="1"/><rect x="34" y="18" width="1" height="1"/><rect x="35" y="18" width="1" height="1"/><rect x="41" y="18" width="1" height="1"/><rect x="42" y="18" width="1" height="1"/><rect x="43" y="18" width="1" height="1"/><rect x="44" y="18" width="1" height="1"/><rect x="47" y="18" width="1" height="1"/><rect x="48" y="18" width="1" height="1"/><rect x="49" y="18" width="1" height="1"/><rect x="50" y="18" width="1" height="1"/><rect x="57" y="18" width="1" height="1"/><rect x="58" y="18" width="1" height="1"/><rect x="59" y="18" width="1" height="1"/><rect x="60" y="18" width="1" height="1"/><rect x="63" y="18" width="1" height="1"/><rect x="64" y="18" width="1" height="1"/><rect x="65" y="18" width="1" height="1"/><rect x="66" y="18" width="1" height="1"/><rect x="74" y="18" width="1" height="1"/><rect x="75" y="18" width="1" height="1"/><rect x="76" y="18" width="1" height="1"/><rect x="77" y="18" width="1" height="1"/><rect x="83" y="18" width="1" height="1"/><rect x="84" y="18" width="1" height="1"/><rect x="85" y="18" width="1" height="1"/><rect x="91" y="18" width="1" height="1"/><rect x="92" y="18" width="1" height="1"/><rect x="93" y="18" width="1" height="1"/><rect x="94" y="18" width="1" height="1"/><rect x="0" y="19" width="1" height="1"/><rect x="1" y="19" width="1" height="1"/><rect x="2" y="19" width="1" height="1"/><rect x="10" y="19" width="1" height="1"/><rect x="11" y="19" width="1" height="1"/><rect x="12" y="19" width="1" height="1"/><rect x="13" y="19" width="1" height="1"/><rect x="14" y="19" width="1" height="1"/><rect x="15" y="19" width="1" height="1"/><rect x="23" y="19" width="1" height="1"/><rect x="24" y="19" width="1" height="1"/><rect x="25" y="19" width="1" height="1"/><rect x="26" y="19" width="1" height="1"/><rect x="32" y="19" width="1" height="1"/><rect x="33" y="19" width="1" height="1"/><rect x="34" y="19" width="1" height="1"/><rect x="35" y="19" width="1" height="1"/><rect x="41" y="19" width="1" height="1"/><rect x="42" y="19" width="1" height="1"/><rect x="43" y="19" width="1" height="1"/><rect x="44" y="19" width="1" height="1"/><rect x="47" y="19" width="1" height="1"/><rect x="48" y="19" width="1" height="1"/><rect x="49" y="19" width="1" height="1"/><rect x="50" y="19" width="1" height="1"/><rect x="57" y="19" width="1" height="1"/><rect x="58" y="19" width="1" height="1"/><rect x="59" y="19" width="1" height="1"/><rect x="60" y="19" width="1" height="1"/><rect x="63" y="19" width="1" height="1"/><rect x="64" y="19" width="1" height="1"/><rect x="65" y="19" width="1" height="1"/><rect x="66" y="19" width="1" height="1"/><rect x="74" y="19" width="1" height="1"/><rect x="75" y="19" width="1" height="1"/><rect x="76" y="19" width="1" height="1"/><rect x="77" y="19" width="1" height="1"/><rect x="82" y="19" width="1" height="1"/><rect x="83" y="19" width="1" height="1"/><rect x="84" y="19" width="1" height="1"/><rect x="85" y="19" width="1" height="1"/><rect x="91" y="19" width="1" height="1"/><rect x="92" y="19" width="1" height="1"/><rect x="93" y="19" width="1" height="1"/><rect x="94" y="19" width="1" height="1"/><rect x="0" y="20" width="1" height="1"/><rect x="1" y="20" width="1" height="1"/><rect x="2" y="20" width="1" height="1"/><rect x="10" y="20" width="1" height="1"/><rect x="11" y="20" width="1" height="1"/><rect x="12" y="20" width="1" height="1"/><rect x="13" y="20" width="1" height="1"/><rect x="14" y="20" width="1" height="1"/><rect x="15" y="20" width="1" height="1"/><rect x="16" y="20" width="1" height="1"/><rect x="23" y="20" width="1" height="1"/><rect x="24" y="20" width="1" height="1"/><rect x="25" y="20" width="1" height="1"/><rect x="26" y="20" width="1" height="1"/><rect x="32" y="20" width="1" height="1"/><rect x="33" y="20" width="1" height="1"/><rect x="34" y="20" width="1" height="1"/><rect x="35" y="20" width="1" height="1"/><rect x="36" y="20" width="1" height="1"/><rect x="37" y="20" width="1" height="1"/><rect x="38" y="20" width="1" height="1"/><rect x="39" y="20" width="1" height="1"/><rect x="40" y="20" width="1" height="1"/><rect x="41" y="20" width="1" height="1"/><rect x="42" y="20" width="1" height="1"/><rect x="43" y="20" width="1" height="1"/><rect x="44" y="20" width="1" height="1"/><rect x="48" y="20" width="1" height="1"/><rect x="49" y="20" width="1" height="1"/><rect x="50" y="20" width="1" height="1"/><rect x="51" y="20" width="1" height="1"/><rect x="52" y="20" width="1" height="1"/><rect x="53" y="20" width="1" height="1"/><rect x="54" y="20" width="1" height="1"/><rect x="55" y="20" width="1" height="1"/><rect x="56" y="20" width="1" height="1"/><rect x="57" y="20" width="1" height="1"/><rect x="58" y="20" width="1" height="1"/><rect x="59" y="20" width="1" height="1"/><rect x="63" y="20" width="1" height="1"/><rect x="64" y="20" width="1" height="1"/><rect x="65" y="20" width="1" height="1"/><rect x="66" y="20" width="1" height="1"/><rect x="67" y="20" width="1" height="1"/><rect x="68" y="20" width="1" height="1"/><rect x="69" y="20" width="1" height="1"/><rect x="70" y="20" width="1" height="1"/><rect x="71" y="20" width="1" height="1"/><rect x="72" y="20" width="1" height="1"/><rect x="74" y="20" width="1" height="1"/><rect x="75" y="20" width="1" height="1"/><rect x="76" y="20" width="1" height="1"/><rect x="77" y="20" width="1" height="1"/><rect x="78" y="20" width="1" height="1"/><rect x="79" y="20" width="1" height="1"/><rect x="80" y="20" width="1" height="1"/><rect x="81" y="20" width="1" height="1"/><rect x="82" y="20" width="1" height="1"/><rect x="83" y="20" width="1" height="1"/><rect x="84" y="20" width="1" height="1"/><rect x="85" y="20" width="1" height="1"/><rect x="91" y="20" width="1" height="1"/><rect x="92" y="20" width="1" height="1"/><rect x="93" y="20" width="1" height="1"/><rect x="94" y="20" width="1" height="1"/><rect x="97" y="20" width="1" height="1"/><rect x="98" y="20" width="1" height="1"/><rect x="99" y="20" width="1" height="1"/><rect x="0" y="21" width="1" height="1"/><rect x="1" y="21" width="1" height="1"/><rect x="2" y="21" width="1" height="1"/><rect x="8" y="21" width="1" height="1"/><rect x="9" y="21" width="1" height="1"/><rect x="10" y="21" width="1" height="1"/><rect x="11" y="21" width="1" height="1"/><rect x="12" y="21" width="1" height="1"/><rect x="13" y="21" width="1" height="1"/><rect x="14" y="21" width="1" height="1"/><rect x="15" y="21" width="1" height="1"/><rect x="16" y="21" width="1" height="1"/><rect x="17" y="21" width="1" height="1"/><rect x="18" y="21" width="1" height="1"/><rect x="23" y="21" width="1" height="1"/><rect x="24" y="21" width="1" height="1"/><rect x="25" y="21" width="1" height="1"/><rect x="26" y="21" width="1" height="1"/><rect x="32" y="21" width="1" height="1"/><rect x="33" y="21" width="1" height="1"/><rect x="34" y="21" width="1" height="1"/><rect x="35" y="21" width="1" height="1"/><rect x="36" y="21" width="1" height="1"/><rect x="37" y="21" width="1" height="1"/><rect x="38" y="21" width="1" height="1"/><rect x="39" y="21" width="1" height="1"/><rect x="40" y="21" width="1" height="1"/><rect x="41" y="21" width="1" height="1"/><rect x="42" y="21" width="1" height="1"/><rect x="43" y="21" width="1" height="1"/><rect x="48" y="21" width="1" height="1"/><rect x="49" y="21" width="1" height="1"/><rect x="50" y="21" width="1" height="1"/><rect x="51" y="21" width="1" height="1"/><rect x="52" y="21" width="1" height="1"/><rect x="53" y="21" width="1" height="1"/><rect x="54" y="21" width="1" height="1"/><rect x="55" y="21" width="1" height="1"/><rect x="56" y="21" width="1" height="1"/><rect x="57" y="21" width="1" height="1"/><rect x="58" y="21" width="1" height="1"/><rect x="63" y="21" width="1" height="1"/><rect x="64" y="21" width="1" height="1"/><rect x="65" y="21" width="1" height="1"/><rect x="66" y="21" width="1" height="1"/><rect x="67" y="21" width="1" height="1"/><rect x="68" y="21" width="1" height="1"/><rect x="69" y="21" width="1" height="1"/><rect x="70" y="21" width="1" height="1"/><rect x="71" y="21" width="1" height="1"/><rect x="72" y="21" width="1" height="1"/><rect x="74" y="21" width="1" height="1"/><rect x="75" y="21" width="1" height="1"/><rect x="76" y="21" width="1" height="1"/><rect x="77" y="21" width="1" height="1"/><rect x="78" y="21" width="1" height="1"/><rect x="79" y="21" width="1" height="1"/><rect x="80" y="21" width="1" height="1"/><rect x="81" y="21" width="1" height="1"/><rect x="82" y="21" width="1" height="1"/><rect x="83" y="21" width="1" height="1"/><rect x="84" y="21" width="1" height="1"/><rect x="91" y="21" width="1" height="1"/><rect x="92" y="21" width="1" height="1"/><rect x="93" y="21" width="1" height="1"/><rect x="94" y="21" width="1" height="1"/><rect x="97" y="21" width="1" height="1"/><rect x="98" y="21" width="1" height="1"/><rect x="99" y="21" width="1" height="1"/><rect x="0" y="22" width="1" height="1"/><rect x="1" y="22" width="1" height="1"/><rect x="2" y="22" width="1" height="1"/><rect x="3" y="22" width="1" height="1"/><rect x="4" y="22" width="1" height="1"/><rect x="5" y="22" width="1" height="1"/><rect x="6" y="22" width="1" height="1"/><rect x="7" y="22" width="1" height="1"/><rect x="8" y="22" width="1" height="1"/><rect x="9" y="22" width="1" height="1"/><rect x="10" y="22" width="1" height="1"/><rect x="11" y="22" width="1" height="1"/><rect x="12" y="22" width="1" height="1"/><rect x="13" y="22" width="1" height="1"/><rect x="14" y="22" width="1" height="1"/><rect x="15" y="22" width="1" height="1"/><rect x="16" y="22" width="1" height="1"/><rect x="17" y="22" width="1" height="1"/><rect x="18" y="22" width="1" height="1"/><rect x="19" y="22" width="1" height="1"/><rect x="20" y="22" width="1" height="1"/><rect x="21" y="22" width="1" height="1"/><rect x="22" y="22" width="1" height="1"/><rect x="23" y="22" width="1" height="1"/><rect x="24" y="22" width="1" height="1"/><rect x="25" y="22" width="1" height="1"/><rect x="26" y="22" width="1" height="1"/><rect x="32" y="22" width="1" height="1"/><rect x="33" y="22" width="1" height="1"/><rect x="34" y="22" width="1" height="1"/><rect x="35" y="22" width="1" height="1"/><rect x="36" y="22" width="1" height="1"/><rect x="37" y="22" width="1" height="1"/><rect x="38" y="22" width="1" height="1"/><rect x="39" y="22" width="1" height="1"/><rect x="40" y="22" width="1" height="1"/><rect x="50" y="22" width="1" height="1"/><rect x="51" y="22" width="1" height="1"/><rect x="52" y="22" width="1" height="1"/><rect x="53" y="22" width="1" height="1"/><rect x="54" y="22" width="1" height="1"/><rect x="55" y="22" width="1" height="1"/><rect x="56" y="22" width="1" height="1"/><rect x="57" y="22" width="1" height="1"/><rect x="63" y="22" width="1" height="1"/><rect x="64" y="22" width="1" height="1"/><rect x="65" y="22" width="1" height="1"/><rect x="66" y="22" width="1" height="1"/><rect x="67" y="22" width="1" height="1"/><rect x="68" y="22" width="1" height="1"/><rect x="69" y="22" width="1" height="1"/><rect x="70" y="22" width="1" height="1"/><rect x="71" y="22" width="1" height="1"/><rect x="74" y="22" width="1" height="1"/><rect x="75" y="22" width="1" height="1"/><rect x="76" y="22" width="1" height="1"/><rect x="77" y="22" width="1" height="1"/><rect x="78" y="22" width="1" height="1"/><rect x="79" y="22" width="1" height="1"/><rect x="80" y="22" width="1" height="1"/><rect x="81" y="22" width="1" height="1"/><rect x="82" y="22" width="1" height="1"/><rect x="91" y="22" width="1" height="1"/><rect x="92" y="22" width="1" height="1"/><rect x="93" y="22" width="1" height="1"/><rect x="94" y="22" width="1" height="1"/><rect x="0" y="23" width="1" height="1"/><rect x="1" y="23" width="1" height="1"/><rect x="2" y="23" width="1" height="1"/><rect x="3" y="23" width="1" height="1"/><rect x="4" y="23" width="1" height="1"/><rect x="5" y="23" width="1" height="1"/><rect x="6" y="23" width="1" height="1"/><rect x="7" y="23" width="1" height="1"/><rect x="8" y="23" width="1" height="1"/><rect x="9" y="23" width="1" height="1"/><rect x="10" y="23" width="1" height="1"/><rect x="11" y="23" width="1" height="1"/><rect x="12" y="23" width="1" height="1"/><rect x="13" y="23" width="1" height="1"/><rect x="14" y="23" width="1" height="1"/><rect x="15" y="23" width="1" height="1"/><rect x="16" y="23" width="1" height="1"/><rect x="17" y="23" width="1" height="1"/><rect x="18" y="23" width="1" height="1"/><rect x="19" y="23" width="1" height="1"/><rect x="20" y="23" width="1" height="1"/><rect x="21" y="23" width="1" height="1"/><rect x="22" y="23" width="1" height="1"/><rect x="23" y="23" width="1" height="1"/><rect x="24" y="23" width="1" height="1"/><rect x="25" y="23" width="1" height="1"/><rect x="26" y="23" width="1" height="1"/><rect x="0" y="24" width="1" height="1"/><rect x="1" y="24" width="1" height="1"/><rect x="2" y="24" width="1" height="1"/><rect x="3" y="24" width="1" height="1"/><rect x="4" y="24" width="1" height="1"/><rect x="5" y="24" width="1" height="1"/><rect x="6" y="24" width="1" height="1"/><rect x="7" y="24" width="1" height="1"/><rect x="8" y="24" width="1" height="1"/><rect x="9" y="24" width="1" height="1"/><rect x="10" y="24" width="1" height="1"/><rect x="11" y="24" width="1" height="1"/><rect x="12" y="24" width="1" height="1"/><rect x="13" y="24" width="1" height="1"/><rect x="14" y="24" width="1" height="1"/><rect x="15" y="24" width="1" height="1"/><rect x="16" y="24" width="1" height="1"/><rect x="17" y="24" width="1" height="1"/><rect x="18" y="24" width="1" height="1"/><rect x="19" y="24" width="1" height="1"/><rect x="20" y="24" width="1" height="1"/><rect x="21" y="24" width="1" height="1"/><rect x="22" y="24" width="1" height="1"/><rect x="23" y="24" width="1" height="1"/><rect x="24" y="24" width="1" height="1"/><rect x="25" y="24" width="1" height="1"/><rect x="26" y="24" width="1" height="1"/></g></svg>
